<?xml version="1.0" encoding="UTF-8" standalone="no"?>
<svg
   xmlns:d2p1="inkscape"
   xmlns:dc0="dc"
   xmlns:cc0="cc"
   xmlns:rdf0="rdf"
   xmlns:d1p1="PxPreVector"
   xmlns:dc="http://purl.org/dc/elements/1.1/"
   xmlns:cc="http://creativecommons.org/ns#"
   xmlns:rdf="http://www.w3.org/1999/02/22-rdf-syntax-ns#"
   xmlns:svg="http://www.w3.org/2000/svg"
   xmlns="http://www.w3.org/2000/svg"
   xmlns:sodipodi="http://sodipodi.sourceforge.net/DTD/sodipodi-0.dtd"
   xmlns:inkscape="http://www.inkscape.org/namespaces/inkscape"
   d1p1:version="1.1"
   width="1000mm"
   height="1000mm"
   viewBox="0 0 1 1"
   id="svg8"
   version="1.1"
   sodipodi:docname="Compex.svg"
   inkscape:version="1.0.1 (3bc2e813f5, 2020-09-07)">
  <sodipodi:namedview
     pagecolor="#ffffff"
     bordercolor="#666666"
     borderopacity="1"
     objecttolerance="10"
     gridtolerance="10"
     guidetolerance="10"
     inkscape:pageopacity="0"
     inkscape:pageshadow="2"
     inkscape:window-width="2467"
     inkscape:window-height="1057"
     id="namedview8"
     showgrid="false"
     inkscape:zoom="0.058208333"
     inkscape:cx="-6624.121"
     inkscape:cy="-652.59515"
     inkscape:window-x="85"
     inkscape:window-y="-8"
     inkscape:window-maximized="1"
     inkscape:current-layer="layer1" />
  <defs
     id="defs2" />
  <metadata
     id="metadata5">
    <rdf0:RDF>
      <cc0:Work
         about="">
        <dc0:format>image/svg+xml</dc0:format>
        <dc0:type
           resource="http://purl.org/dc/dcmitype/StillImage" />
        <dc0:title />
      </cc0:Work>
    </rdf0:RDF>
    <rdf:RDF>
      <cc:Work
         rdf:about="">
        <dc:format>image/svg+xml</dc:format>
        <dc:type
           rdf:resource="http://purl.org/dc/dcmitype/StillImage" />
        <dc:title></dc:title>
      </cc:Work>
    </rdf:RDF>
  </metadata>
  <g
     d2p1:label=""
     d2p1:groupmode="layer"
     id="layer1"
     style="display:inline">
    <path
       id="rect863"
       style="fill:none;stroke:#000000;stroke-width:99.9999;stop-color:#000000"
       d="M -4097.3516,-1778.0957 V 687.1875 C -4820.3243,3725.84 -4517.1069,3774.015 -1520.4004,3052.4688 H 1056.5488 C 3905.6052,3747.3072 4080.1714,3641.9777 3633.5,687.1875 v -2465.2832 c 207.5824,-2695.0602 -61.2743,-2365.2832 -2576.9512,-2365.2832 h -2576.9492 c -2694.4405,-179.4486 -2576.9512,-177.1957 -2576.9512,2365.2832 z"
       transform="matrix(2.6458333e-4,0,0,2.6458333e-4,0,0)"
       sodipodi:nodetypes="ccccccccc" />
    <path
       id="rect863-9"
       style="display:inline;fill:none;stroke:#000000;stroke-width:0.0169738;stop-color:#000000"
       d="m -0.7962148,-0.56780827 v 0.35784756 c -0.14349828,0.44107485 -0.0833146,0.44806767 0.51148284,0.34333182 h 0.51148243 c 0.56549122,0.10085912 0.60013977,0.08557 0.51148278,-0.34333182 V -0.56780827 C 0.77943506,-0.95900908 0.7260714,-0.91114043 0.22675047,-0.91114043 h -0.51148243 c -0.53480255,-0.0260478 -0.51148284,-0.0257207 -0.51148284,0.34333216 z"
       sodipodi:nodetypes="ccccccccc" />
    <path
       id="rect863-9-0"
       style="display:inline;fill:none;stroke:#000000;stroke-width:0.0169738;stop-color:#000000"
       d="M -0.05302704,0.72535529 V 1.0832028 C -0.19652532,1.5242777 -0.13634164,1.5312705 0.4584558,1.4265347 H 0.96993822 C 1.5354294,1.5273938 1.570078,1.5121047 1.481421,1.0832028 V 0.72535529 C 1.5226228,0.33415448 1.4692591,0.38202313 0.96993822,0.38202313 H 0.4584558 c -0.53480255,-0.0260478 -0.51148284,-0.0257207 -0.51148284,0.34333216 z"
       sodipodi:nodetypes="ccccccccc" />
  </g>
</svg>
