<svg d1p1:version="1.1" xmlns:dc="http://purl.org/dc/elements/1.1/" xmlns:cc="http://creativecommons.org/ns/#" xmlns:rdf="http://w3.org/1999/02/22-rdf-syntax-ns#" xmlns:svg="http://www.w3.org/2000/svg" xmlns="http://www.w3.org/2000/svg" xmlns:sodipodi="http://sodipodi.sourceforge.net/DTD/sodipodi-0.dtd" xmlns:inkscape="http://www.inkscape.org/namespaces/inkscape" width="1000mm" height="1000mm" viewBox="0 0 1 1" id="svg8" xmlns:d1p1="PxPreVector">
  <defs />
  <metadata id="metadata5">
    <RDF xmlns="rdf">
      <Work about="" xmlns="cc">
        <format xmlns="dc">image/svg+xml</format>
        <type resource="http://purl.org/dc/dcmitype/StillImage" xmlns="dc" />
        <title xmlns="dc" />
      </Work>
    </RDF>
  </metadata>
  <g d2p1:label="" d2p1:groupmode="layer" id="layer1" style="display:inline" xmlns:d2p1="inkscape">
    <path style="fill: #ffffff; fill-opacity: 1; stroke: #000000; stroke-opacity: 1; stroke-width: 0.001; stroke-linecap: butt; stroke-miterlimit: 4; stroke-linejoin: round; stroke-dasharray: none; " d="M -0.02549103, 0.423038 C -0.02549103,0.423038 -0.1699432,0.486079 -0.1612765,0.4857457 -0.1526098,0.4854123 0.1271085,0.6109952 0.1271085,0.6109952 0.1271085,0.6109952 0.3783333,0.749734 0.389,0.7490673 0.3996667,0.7484006 0.648348,0.7804734 0.6606814,0.7758067 0.6730147,0.7711401 0.8490866,0.7104161 0.8554199,0.6997495 0.8617533,0.6890828 0.1925691,0.1104067 0.1839024,0.09474005 0.1752358,0.07907338 0.4510037,0.2652811 0.4510037,0.2652811 0.4510037,0.2652811 0.4822398,-0.001099174 0.4822398,-0.0144325 0.4822398,-0.02709917 0.06,0.02933333 0.056,0.04 0.05066667,0.05466667 0.09774983,0.158572 0.1007498,0.1719053 0.1037498,0.1852386 0.6266052,0.6425452 0.6266052,0.6425452 L  -0.02549103, 0.423038 Z" id="" />
  </g>
</svg>