<?xml version="1.0" encoding="UTF-8" standalone="no"?>
<svg
   xmlns:d2p1="inkscape"
   xmlns:dc0="dc"
   xmlns:cc0="cc"
   xmlns:rdf0="rdf"
   xmlns:d1p1="PxPreVector"
   xmlns:dc="http://purl.org/dc/elements/1.1/"
   xmlns:cc="http://creativecommons.org/ns#"
   xmlns:rdf="http://www.w3.org/1999/02/22-rdf-syntax-ns#"
   xmlns:svg="http://www.w3.org/2000/svg"
   xmlns="http://www.w3.org/2000/svg"
   xmlns:sodipodi="http://sodipodi.sourceforge.net/DTD/sodipodi-0.dtd"
   xmlns:inkscape="http://www.inkscape.org/namespaces/inkscape"
   d1p1:version="1.1"
   width="1000mm"
   height="1000mm"
   viewBox="0 0 1 1"
   id="svg8"
   version="1.1"
   sodipodi:docname="TriVen.svg"
   inkscape:version="1.0.1 (3bc2e813f5, 2020-09-07)">
  <sodipodi:namedview
     pagecolor="#ffffff"
     bordercolor="#666666"
     borderopacity="1"
     objecttolerance="10"
     gridtolerance="10"
     guidetolerance="10"
     inkscape:pageopacity="0"
     inkscape:pageshadow="2"
     inkscape:window-width="2467"
     inkscape:window-height="1057"
     id="namedview8"
     showgrid="false"
     inkscape:zoom="0.058208333"
     inkscape:cx="-6299.4971"
     inkscape:cy="62.548362"
     inkscape:window-x="85"
     inkscape:window-y="-8"
     inkscape:window-maximized="1"
     inkscape:current-layer="layer1" />
  <defs
     id="defs2" />
  <metadata
     id="metadata5">
    <rdf0:RDF>
      <cc0:Work
         about="">
        <dc0:format>image/svg+xml</dc0:format>
        <dc0:type
           resource="http://purl.org/dc/dcmitype/StillImage" />
        <dc0:title />
      </cc0:Work>
    </rdf0:RDF>
    <rdf:RDF>
      <cc:Work
         rdf:about="">
        <dc:format>image/svg+xml</dc:format>
        <dc:type
           rdf:resource="http://purl.org/dc/dcmitype/StillImage" />
        <dc:title></dc:title>
      </cc:Work>
    </rdf:RDF>
  </metadata>
  <g
     d2p1:label=""
     d2p1:groupmode="layer"
     id="layer1"
     style="display:inline">
    <path
       style="fill:#ffffff;fill-opacity:1;stroke:#000000;stroke-width:0.000432649;stroke-linecap:butt;stroke-linejoin:round;stroke-miterlimit:4;stroke-dasharray:none;stroke-opacity:1"
       d="m -0.50083043,0.63122225 c 0.21632431,0.21632433 0.64897296,0.21632433 0.86529729,0 0.21632434,-0.21632432 0.21632434,-0.64897297 0,-0.8652973 -0.054384,-0.054384 -0.14167126,-0.17905969 -0.19729401,-0.1221355 -0.4805167,0.49175948 -0.50606294,-0.0398049 -0.66800328,0.1221355 -0.21632435,0.21632433 -0.21632435,0.64897298 0,0.8652973 z"
       id=""
       sodipodi:nodetypes="ssssss" />
    <path
       style="display:inline;fill:#ffffff;fill-opacity:1;stroke:#000000;stroke-width:0.000432649;stroke-linecap:butt;stroke-linejoin:round;stroke-miterlimit:4;stroke-dasharray:none;stroke-opacity:1"
       d="m 0.13553318,0.22441683 c 0.21632431,0.2163243 0.64897296,0.2163243 0.86529732,0 0.2163243,-0.21632432 0.2163243,-0.64897297 0,-0.8652973 -0.054384,-0.054384 -0.1416713,-0.17905969 -0.19729405,-0.1221355 -0.48051669,0.49175947 -0.50606293,-0.0398049 -0.66800327,0.1221355 -0.21632435,0.21632433 -0.21632435,0.64897298 0,0.8652973 z"
       id="-1"
       sodipodi:nodetypes="ssssss" />
    <path
       style="display:inline;fill:#ffffff;fill-opacity:1;stroke:#000000;stroke-width:0.000432649;stroke-linecap:butt;stroke-linejoin:round;stroke-miterlimit:4;stroke-dasharray:none;stroke-opacity:1"
       d="m 0.74007863,0.86078046 c 0.21632431,0.21632434 0.64897297,0.21632434 0.86529727,0 0.2163243,-0.21632432 0.2163243,-0.64897297 0,-0.8652973 -0.054384,-0.054384 -0.1416712,-0.17905971 -0.197294,-0.12213551 -0.48051669,0.49175948 -0.50606293,-0.039805 -0.66800327,0.12213551 -0.21632435,0.21632433 -0.21632435,0.64897298 0,0.8652973 z"
       id="-1-4"
       sodipodi:nodetypes="ssssss" />
  </g>
</svg>
